<svg xmlns="http://www.w3.org/2000/svg" viewBox="0 0 1280 800" width="1280" height="800">
<rect width="1280" height="800" fill="#0a0f1e"/>
<polyline points="0.0,400.0 1.4,377.3 2.8,355.0 4.3,335.3 5.7,320.0 7.1,310.4 8.5,307.6 10.0,311.9 11.4,323.2 12.8,340.7 14.2,363.2 15.6,389.1 17.1,416.4 18.5,443.0 19.9,467.0 21.3,486.2 22.8,499.3 24.2,505.1 25.6,503.0 27.0,493.1 28.4,476.0 29.9,452.9 31.3,425.5 32.7,395.8 34.1,365.9 35.6,338.2 37.0,314.7 38.4,297.3 39.8,287.2 41.2,285.4 42.7,292.0 44.1,306.6 45.5,328.3 46.9,355.5 48.4,386.2 49.8,418.3 51.2,449.4 52.6,477.2 54.0,499.7 55.5,515.2 56.9,522.7 58.3,521.4 59.7,511.4 61.2,493.4 62.6,468.6 64.0,438.8 65.4,406.0 66.8,372.5 68.3,340.6 69.7,312.6 71.1,290.5 72.5,275.8 74.0,269.6 75.4,272.2 76.8,283.6 78.2,303.0 79.6,329.1 81.1,360.2 82.5,394.1 83.9,428.7 85.3,461.6 86.8,490.5 88.2,513.7 89.6,529.5 91.0,537.0 92.4,535.6 93.9,525.4 95.3,507.0 96.7,481.7 98.1,451.1 99.6,417.0 101.0,381.7 102.4,347.4 103.8,316.3 105.2,290.1 106.7,270.7 108.1,259.1 109.5,256.1 110.9,261.8 112.4,275.9 113.8,297.4 115.2,325.2 116.6,357.5 118.0,392.5 119.5,428.0 120.9,462.0 122.3,492.5 123.7,517.8 125.2,536.5 126.6,547.4 128.0,550.1 129.4,544.4 130.8,530.7 132.3,509.7 133.7,482.7 135.1,451.0 136.5,416.6 138.0,381.1 139.4,346.6 140.8,314.9 142.2,287.5 143.6,266.0 145.1,251.3 146.5,244.3 147.9,245.1 149.3,253.8 150.8,269.9 152.2,292.4 153.6,320.3 155.0,352.2 156.4,386.3 157.9,421.2 159.3,455.2 160.7,486.5 162.1,513.8 163.6,535.9 165.0,551.6 166.4,560.5 167.8,562.0 169.2,556.3 170.7,543.6 172.1,524.5 173.5,500.0 174.9,471.1 176.4,439.1 177.8,405.5 179.2,371.6 180.6,338.9 182.0,308.8 183.5,282.4 184.9,260.8 186.3,244.8 187.7,235.0 189.2,231.7 190.6,235.0 192.0,244.7 193.4,260.4 194.8,281.4 196.3,306.8 197.7,335.7 199.1,366.9 200.5,399.3 202.0,431.7 203.4,463.0 204.8,491.9 206.2,517.7 207.6,539.3 209.1,556.1 210.5,567.6 211.9,573.5 213.3,573.6 214.8,568.0 216.2,557.0 217.6,540.9 219.0,520.4 220.4,496.1 221.9,468.8 223.3,439.6 224.7,409.1 226.1,378.4 227.6,348.5 229.0,320.1 230.4,294.1 231.8,271.1 233.2,251.9 234.7,236.9 236.1,226.4 237.5,220.7 238.9,219.9 240.4,223.9 241.8,232.5 243.2,245.5 244.6,262.5 246.0,282.9 247.5,306.2 248.9,331.8 250.3,359.0 251.7,387.2 253.2,415.5 254.6,443.5 256.0,470.3 257.4,495.4 258.8,518.3 260.3,538.4 261.7,555.4 263.1,568.9 264.5,578.7 266.0,584.6 267.4,586.6 268.8,584.7 270.2,579.0 271.6,569.6 273.1,556.8 274.5,541.0 275.9,522.4 277.3,501.5 278.8,478.7 280.2,454.5 281.6,429.4 283.0,403.8 284.4,378.2 285.9,353.1 287.3,329.0 288.7,306.1 290.1,285.0 291.6,265.9 293.0,249.1 294.4,234.9 295.8,223.5 297.2,215.0 298.7,209.5 300.1,207.0 301.5,207.6 302.9,211.1 304.4,217.5 305.8,226.6 307.2,238.3 308.6,252.3 310.0,268.5 311.5,286.4 312.9,305.9 314.3,326.6 315.7,348.3 317.2,370.6 318.6,393.2 320.0,415.9 321.4,438.2 322.8,460.0 324.3,480.9 325.7,500.7 327.1,519.2 328.5,536.2 330.0,551.4 331.4,564.7 332.8,576.0 334.2,585.2 335.6,592.3 337.1,597.0 338.5,599.5 339.9,599.7 341.3,597.7 342.8,593.5 344.2,587.3 345.6,579.0 347.0,568.8 348.4,556.8 349.9,543.3 351.3,528.3 352.7,512.0 354.1,494.7 355.6,476.4 357.0,457.4 358.4,437.9 359.8,418.1 361.2,398.2 362.7,378.3 364.1,358.7 365.5,339.6 366.9,321.0 368.4,303.2 369.8,286.4 371.2,270.6 372.6,256.0 374.0,242.7 375.5,230.9 376.9,220.5 378.3,211.8 379.7,204.7 381.2,199.2 382.6,195.6 384.0,193.6 385.4,193.4 386.8,194.9 388.3,198.2 389.7,203.1 391.1,209.6 392.5,217.7 394.0,227.2 395.4,238.1 396.8,250.4 398.2,263.8 399.6,278.3 401.1,293.8 402.5,310.1 403.9,327.1 405.3,344.6 406.8,362.6 408.2,380.9 409.6,399.4 411.0,417.8 412.4,436.2 413.9,454.2 415.3,471.9 416.7,489.0 418.1,505.4 419.6,521.1 421.0,535.8 422.4,549.5 423.8,562.1 425.2,573.5 426.7,583.6 428.1,592.2 429.5,599.5 430.9,605.2 432.4,609.4 433.8,611.9 435.2,612.9 436.6,612.2 438.0,609.9 439.5,606.0 440.9,600.5 442.3,593.4 443.7,584.9 445.2,574.8 446.6,563.4 448.0,550.6 449.4,536.7 450.8,521.6 452.3,505.5 453.7,488.5 455.1,470.7 456.5,452.4 458.0,433.5 459.4,414.3 460.8,394.9 462.2,375.4 463.6,356.1 465.1,337.1 466.5,318.5 467.9,300.5 469.3,283.3 470.8,267.0 472.2,251.7 473.6,237.6 475.0,224.9 476.4,213.7 477.9,204.0 479.3,196.0 480.7,189.7 482.1,185.4 483.6,182.9 485.0,182.4 486.4,184.0 487.8,187.5 489.2,193.0 490.7,200.6 492.1,210.1 493.5,221.4 494.9,234.6 496.4,249.4 497.8,265.9 499.2,283.8 500.6,302.9 502.0,323.2 503.5,344.4 504.9,366.3 506.3,388.7 507.7,411.3 509.2,434.0 510.6,456.4 512.0,478.4 513.4,499.6 514.8,519.9 516.3,538.9 517.7,556.4 519.1,572.3 520.5,586.2 522.0,598.0 523.4,607.5 524.8,614.5 526.2,618.9 527.6,620.7 529.1,619.6 530.5,615.8 531.9,609.1 533.3,599.7 534.8,587.5 536.2,572.8 537.6,555.6 539.0,536.2 540.4,514.7 541.9,491.5 543.3,466.8 544.7,441.0 546.1,414.4 547.6,387.4 549.0,360.4 550.4,333.8 551.8,308.1 553.2,283.6 554.7,260.8 556.1,240.0 557.5,221.7 558.9,206.2 560.4,193.7 561.8,184.7 563.2,179.2 564.6,177.5 566.0,179.7 567.5,185.7 568.9,195.7 570.3,209.4 571.7,226.7 573.2,247.3 574.6,271.0 576.0,297.2 577.4,325.6 578.8,355.7 580.3,386.8 581.7,418.4 583.1,449.9 584.5,480.5 586.0,509.7 587.4,536.7 588.8,561.0 590.2,582.0 591.6,599.2 593.1,612.0 594.5,620.2 595.9,623.4 597.3,621.6 598.8,614.5 600.2,602.4 601.6,585.4 603.0,563.7 604.4,538.0 605.9,508.7 607.3,476.4 608.7,442.1 610.1,406.4 611.6,370.4 613.0,334.9 614.4,300.9 615.8,269.4 617.2,241.3 618.7,217.3 620.1,198.3 621.5,184.9 622.9,177.5 624.4,176.4 625.8,181.9 627.2,193.9 628.6,212.1 630.0,236.0 631.5,265.1 632.9,298.5 634.3,335.2 635.7,374.2 637.2,414.3 638.6,454.1 640.0,492.3 641.4,527.7 642.8,559.1 644.3,585.2 645.7,605.2 647.1,618.3 648.5,623.8 650.0,621.5 651.4,611.3 652.8,593.5 654.2,568.6 655.6,537.4 657.1,500.9 658.5,460.6 659.9,417.7 661.3,373.9 662.8,331.0 664.2,290.5 665.6,254.1 667.0,223.4 668.4,199.5 669.9,183.7 671.3,176.6 672.7,178.7 674.1,190.0 675.6,210.1 677.0,238.4 678.4,273.7 679.8,314.6 681.2,359.4 682.7,406.1 684.1,452.8 685.5,497.3 686.9,537.6 688.4,571.8 689.8,598.3 691.2,615.7 692.6,623.0 694.0,620.0 695.5,606.4 696.9,583.0 698.3,550.6 699.7,510.8 701.2,465.4 702.6,416.7 704.0,366.9 705.4,318.6 706.8,274.3 708.3,236.2 709.7,206.4 711.1,186.6 712.5,177.8 714.0,180.6 715.4,195.1 716.8,220.5 718.2,255.7 719.6,298.7 721.1,347.4 722.5,399.1 723.9,451.0 725.3,500.2 726.8,543.9 728.2,579.7 729.6,605.4 731.0,619.4 732.4,620.8 733.9,609.5 735.3,586.0 736.7,551.5 738.1,508.1 739.6,458.1 741.0,404.5 742.4,350.6 743.8,299.5 745.2,254.5 746.7,218.1 748.1,192.9 749.5,180.4 750.9,181.5 752.4,196.2 753.8,223.7 755.2,262.4 756.6,309.8 758.0,363.1 759.5,418.8 760.9,473.4 762.3,523.4 763.7,565.4 765.2,596.7 766.6,615.1 768.0,619.4 769.4,609.2 770.8,585.1 772.3,548.6 773.7,502.1 775.1,448.7 776.5,392.0 778.0,335.7 779.4,283.8 780.8,239.7 782.2,206.6 783.6,186.8 785.1,181.7 786.5,191.8 787.9,216.3 789.3,253.8 790.8,301.4 792.2,356.1 793.6,413.8 795.0,470.6 796.4,522.5 797.9,565.6 799.3,596.9 800.7,614.1 802.1,616.0 803.6,602.3 805.0,573.9 806.4,533.0 807.8,482.5 809.2,425.9 810.7,367.5 812.1,311.4 813.5,261.8 814.9,222.4 816.4,196.1 817.8,184.7 819.2,189.3 820.6,209.5 822.0,243.7 823.5,289.6 824.9,343.6 826.3,401.8 827.7,459.8 829.2,513.3 830.6,558.3 832.0,591.5 833.4,610.2 834.8,613.2 836.3,600.2 837.7,572.1 839.1,531.2 840.5,480.4 842.0,423.6 843.4,365.1 844.8,309.3 846.2,260.4 847.6,222.1 849.1,197.3 850.5,187.8 851.9,194.4 853.3,216.4 854.8,252.3 856.2,299.3 857.6,353.9 859.0,411.8 860.4,468.7 861.9,520.3 863.3,562.8 864.7,592.9 866.1,608.5 867.6,608.3 869.0,592.4 870.4,562.2 871.8,519.8 873.2,468.5 874.7,412.2 876.1,355.1 877.5,301.5 878.9,255.4 880.4,220.1 881.8,198.4 883.2,191.7 884.6,200.5 886.0,224.0 887.5,260.5 888.9,307.3 890.3,360.7 891.7,416.9 893.2,471.6 894.6,521.0 896.0,561.4 897.4,589.8 898.8,604.4 900.3,604.1 901.7,589.0 903.1,560.3 904.5,520.1 906.0,471.4 907.4,417.8 908.8,363.0 910.2,311.1 911.6,265.7 913.1,230.0 914.5,206.4 915.9,196.5 917.3,201.0 918.8,219.3 920.2,250.2 921.6,291.3 923.0,339.9 924.4,392.3 925.9,445.1 927.3,494.6 928.7,537.5 930.1,570.8 931.6,592.4 933.0,601.0 934.4,596.1 935.8,578.0 937.2,548.2 938.7,508.8 940.1,462.3 941.5,412.0 942.9,361.1 944.4,312.9 945.8,270.7 947.2,236.9 948.6,213.8 950.0,202.7 951.5,204.1 952.9,217.9 954.3,243.1 955.7,277.9 957.2,320.2 958.6,367.1 960.0,415.9 961.4,463.4 962.8,506.8 964.3,543.5 965.7,571.4 967.1,588.9 968.5,595.1 970.0,589.8 971.4,573.3 972.8,546.9 974.2,512.1 975.6,471.0 977.1,426.1 978.5,380.0 979.9,335.3 981.3,294.5 982.8,259.8 984.2,233.1 985.6,215.7 987.0,208.5 988.4,211.7 989.9,225.1 991.3,247.6 992.7,278.2 994.1,314.9 995.6,355.9 997.0,398.8 998.4,441.6 999.8,481.9 1001.2,517.8 1002.7,547.6 1004.1,569.7 1005.5,583.3 1006.9,587.8 1008.4,583.1 1009.8,569.6 1011.2,548.0 1012.6,519.6 1014.0,485.7 1015.5,448.0 1016.9,408.4 1018.3,368.7 1019.7,330.7 1021.2,296.2 1022.6,266.5 1024.0,243.0 1025.4,226.6 1026.8,218.0 1028.3,217.2 1029.7,224.3 1031.1,238.8 1032.5,260.0 1034.0,286.8 1035.4,318.2 1036.8,352.6 1038.2,388.6 1039.6,424.8 1041.1,459.7 1042.5,492.0 1043.9,520.4 1045.3,544.0 1046.8,561.8 1048.2,573.3 1049.6,578.3 1051.0,576.5 1052.4,568.3 1053.9,554.1 1055.3,534.4 1056.7,510.2 1058.1,482.2 1059.6,451.6 1061.0,419.6 1062.4,387.1 1063.8,355.4 1065.2,325.5 1066.7,298.3 1068.1,274.7 1069.5,255.4 1070.9,240.8 1072.4,231.5 1073.8,227.5 1075.2,229.0 1076.6,235.6 1078.0,247.2 1079.5,263.2 1080.9,283.1 1082.3,306.2 1083.7,331.9 1085.2,359.2 1086.6,387.4 1088.0,415.7 1089.4,443.2 1090.8,469.3 1092.3,493.2 1093.7,514.5 1095.1,532.4 1096.5,546.8 1098.0,557.2 1099.4,563.5 1100.8,565.6 1102.2,563.6 1103.6,557.6 1105.1,547.8 1106.5,534.6 1107.9,518.4 1109.3,499.6 1110.8,478.6 1112.2,456.2 1113.6,432.7 1115.0,408.7 1116.4,384.8 1117.9,361.5 1119.3,339.3 1120.7,318.6 1122.1,299.9 1123.6,283.4 1125.0,269.5 1126.4,258.4 1127.8,250.3 1129.2,245.2 1130.7,243.1 1132.1,244.1 1133.5,248.0 1134.9,254.7 1136.4,264.0 1137.8,275.6 1139.2,289.4 1140.6,304.9 1142.0,322.0 1143.5,340.1 1144.9,359.1 1146.3,378.6 1147.7,398.1 1149.2,417.5 1150.6,436.3 1152.0,454.3 1153.4,471.3 1154.8,486.9 1156.3,500.9 1157.7,513.3 1159.1,523.8 1160.5,532.3 1162.0,538.8 1163.4,543.1 1164.8,545.4 1166.2,545.6 1167.6,543.7 1169.1,539.9 1170.5,534.2 1171.9,526.8 1173.3,517.8 1174.8,507.3 1176.2,495.6 1177.6,482.8 1179.0,469.2 1180.4,454.8 1181.9,440.0 1183.3,424.8 1184.7,409.6 1186.1,394.5 1187.6,379.6 1189.0,365.1 1190.4,351.3 1191.8,338.2 1193.2,326.0 1194.7,314.8 1196.1,304.7 1197.5,295.7 1198.9,288.0 1200.4,281.7 1201.8,276.6 1203.2,273.0 1204.6,270.7 1206.0,269.7 1207.5,270.2 1208.9,271.9 1210.3,274.9 1211.7,279.0 1213.2,284.3 1214.6,290.7 1216.0,298.0 1217.4,306.2 1218.8,315.1 1220.3,324.8 1221.7,334.9 1223.1,345.6 1224.5,356.5 1226.0,367.7 1227.4,379.1 1228.8,390.4 1230.2,401.7 1231.6,412.7 1233.1,423.5 1234.5,433.9 1235.9,443.9 1237.3,453.3 1238.8,462.1 1240.2,470.2 1241.6,477.6 1243.0,484.2 1244.4,490.1 1245.9,495.0 1247.3,499.1 1248.7,502.3 1250.1,504.6 1251.6,506.0 1253.0,506.4 1254.4,506.1 1255.8,504.8 1257.2,502.7 1258.7,499.8 1260.1,496.2 1261.5,491.8 1262.9,486.8 1264.4,481.2 1265.8,475.1 1267.2,468.4 1268.6,461.4 1270.0,454.0 1271.5,446.4 1272.9,438.6 1274.3,430.7 1275.7,422.7 1277.2,414.9 1278.6,407.3 1280.0,400.0" fill="none" stroke="#81d3eb" stroke-width="2"/>
<polyline points="0.0,321.6 10.7,305.2 21.3,296.8 32.0,290.0 42.7,284.0 53.3,278.7 64.0,273.8 74.7,269.2 85.3,264.9 96.0,260.8 106.7,256.9 117.3,253.2 128.0,249.6 138.7,246.2 149.3,242.9 160.0,239.8 170.7,236.7 181.3,233.8 192.0,230.9 202.7,228.2 213.3,225.5 224.0,223.0 234.7,220.5 245.3,218.1 256.0,215.7 266.7,213.5 277.3,211.3 288.0,209.2 298.7,207.2 309.3,205.2 320.0,203.3 330.7,201.5 341.3,199.8 352.0,198.1 362.7,196.4 373.3,194.9 384.0,193.4 394.7,192.0 405.3,190.6 416.0,189.3 426.7,188.0 437.3,186.9 448.0,185.7 458.7,184.7 469.3,183.7 480.0,182.8 490.7,181.9 501.3,181.1 512.0,180.3 522.7,179.6 533.3,179.0 544.0,178.4 554.7,177.9 565.3,177.5 576.0,177.1 586.7,176.7 597.3,176.5 608.0,176.3 618.7,176.1 629.3,176.0 640.0,176.0 650.7,176.0 661.3,176.1 672.0,176.3 682.7,176.5 693.3,176.7 704.0,177.1 714.7,177.5 725.3,177.9 736.0,178.4 746.7,179.0 757.3,179.6 768.0,180.3 778.7,181.1 789.3,181.9 800.0,182.8 810.7,183.7 821.3,184.7 832.0,185.7 842.7,186.9 853.3,188.0 864.0,189.3 874.7,190.6 885.3,192.0 896.0,193.4 906.7,194.9 917.3,196.4 928.0,198.1 938.7,199.8 949.3,201.5 960.0,203.3 970.7,205.2 981.3,207.2 992.0,209.2 1002.7,211.3 1013.3,213.5 1024.0,215.7 1034.7,218.1 1045.3,220.5 1056.0,223.0 1066.7,225.5 1077.3,228.2 1088.0,230.9 1098.7,233.8 1109.3,236.7 1120.0,239.8 1130.7,242.9 1141.3,246.2 1152.0,249.6 1162.7,253.2 1173.3,256.9 1184.0,260.8 1194.7,264.9 1205.3,269.2 1216.0,273.8 1226.7,278.7 1237.3,284.0 1248.0,290.0 1258.7,296.8 1269.3,305.2 1280.0,321.6" fill="none" stroke="#ef4056" stroke-width="1.5" stroke-dasharray="4 8" opacity="0.8"/>
<line x1="0" y1="400" x2="1280" y2="400" stroke="#1d2742" stroke-width="1"/>
</svg>
