<svg xmlns="http://www.w3.org/2000/svg" viewBox="0 0 1280 800" width="1280" height="800">
<rect width="1280" height="800" fill="#0a0f1e"/>
<circle cx="435.20000000000005" cy="400" r="26" fill="none" stroke="#81d3eb" stroke-width="1.1" opacity="0.486"/>
<circle cx="435.20000000000005" cy="400" r="52" fill="none" stroke="#81d3eb" stroke-width="1.1" opacity="0.472"/>
<circle cx="435.20000000000005" cy="400" r="78" fill="none" stroke="#81d3eb" stroke-width="1.1" opacity="0.458"/>
<circle cx="435.20000000000005" cy="400" r="104" fill="none" stroke="#81d3eb" stroke-width="1.1" opacity="0.444"/>
<circle cx="435.20000000000005" cy="400" r="130" fill="none" stroke="#81d3eb" stroke-width="1.1" opacity="0.430"/>
<circle cx="435.20000000000005" cy="400" r="156" fill="none" stroke="#81d3eb" stroke-width="1.1" opacity="0.416"/>
<circle cx="435.20000000000005" cy="400" r="182" fill="none" stroke="#81d3eb" stroke-width="1.1" opacity="0.402"/>
<circle cx="435.20000000000005" cy="400" r="208" fill="none" stroke="#81d3eb" stroke-width="1.1" opacity="0.388"/>
<circle cx="435.20000000000005" cy="400" r="234" fill="none" stroke="#81d3eb" stroke-width="1.1" opacity="0.374"/>
<circle cx="435.20000000000005" cy="400" r="260" fill="none" stroke="#81d3eb" stroke-width="1.1" opacity="0.360"/>
<circle cx="435.20000000000005" cy="400" r="286" fill="none" stroke="#81d3eb" stroke-width="1.1" opacity="0.346"/>
<circle cx="435.20000000000005" cy="400" r="312" fill="none" stroke="#81d3eb" stroke-width="1.1" opacity="0.332"/>
<circle cx="435.20000000000005" cy="400" r="338" fill="none" stroke="#81d3eb" stroke-width="1.1" opacity="0.318"/>
<circle cx="435.20000000000005" cy="400" r="364" fill="none" stroke="#81d3eb" stroke-width="1.1" opacity="0.304"/>
<circle cx="435.20000000000005" cy="400" r="390" fill="none" stroke="#81d3eb" stroke-width="1.1" opacity="0.290"/>
<circle cx="435.20000000000005" cy="400" r="416" fill="none" stroke="#81d3eb" stroke-width="1.1" opacity="0.276"/>
<circle cx="435.20000000000005" cy="400" r="442" fill="none" stroke="#81d3eb" stroke-width="1.1" opacity="0.262"/>
<circle cx="435.20000000000005" cy="400" r="468" fill="none" stroke="#81d3eb" stroke-width="1.1" opacity="0.248"/>
<circle cx="435.20000000000005" cy="400" r="494" fill="none" stroke="#81d3eb" stroke-width="1.1" opacity="0.234"/>
<circle cx="435.20000000000005" cy="400" r="520" fill="none" stroke="#81d3eb" stroke-width="1.1" opacity="0.220"/>
<circle cx="435.20000000000005" cy="400" r="546" fill="none" stroke="#81d3eb" stroke-width="1.1" opacity="0.206"/>
<circle cx="435.20000000000005" cy="400" r="572" fill="none" stroke="#81d3eb" stroke-width="1.1" opacity="0.192"/>
<circle cx="435.20000000000005" cy="400" r="598" fill="none" stroke="#81d3eb" stroke-width="1.1" opacity="0.178"/>
<circle cx="435.20000000000005" cy="400" r="624" fill="none" stroke="#81d3eb" stroke-width="1.1" opacity="0.164"/>
<circle cx="435.20000000000005" cy="400" r="650" fill="none" stroke="#81d3eb" stroke-width="1.1" opacity="0.150"/>
<circle cx="435.20000000000005" cy="400" r="676" fill="none" stroke="#81d3eb" stroke-width="1.1" opacity="0.136"/>
<circle cx="435.20000000000005" cy="400" r="702" fill="none" stroke="#81d3eb" stroke-width="1.1" opacity="0.122"/>
<circle cx="435.20000000000005" cy="400" r="728" fill="none" stroke="#81d3eb" stroke-width="1.1" opacity="0.108"/>
<circle cx="435.20000000000005" cy="400" r="754" fill="none" stroke="#81d3eb" stroke-width="1.1" opacity="0.094"/>
<circle cx="435.20000000000005" cy="400" r="780" fill="none" stroke="#81d3eb" stroke-width="1.1" opacity="0.080"/>
<circle cx="435.20000000000005" cy="400" r="806" fill="none" stroke="#81d3eb" stroke-width="1.1" opacity="0.066"/>
<circle cx="435.20000000000005" cy="400" r="832" fill="none" stroke="#81d3eb" stroke-width="1.1" opacity="0.052"/>
<circle cx="435.20000000000005" cy="400" r="858" fill="none" stroke="#81d3eb" stroke-width="1.1" opacity="0.040"/>
<circle cx="435.20000000000005" cy="400" r="884" fill="none" stroke="#81d3eb" stroke-width="1.1" opacity="0.040"/>
<circle cx="435.20000000000005" cy="400" r="4" fill="#ef4056"/>
<circle cx="844.8000000000001" cy="400" r="26" fill="none" stroke="#378dbd" stroke-width="1.1" opacity="0.486"/>
<circle cx="844.8000000000001" cy="400" r="52" fill="none" stroke="#378dbd" stroke-width="1.1" opacity="0.472"/>
<circle cx="844.8000000000001" cy="400" r="78" fill="none" stroke="#378dbd" stroke-width="1.1" opacity="0.458"/>
<circle cx="844.8000000000001" cy="400" r="104" fill="none" stroke="#378dbd" stroke-width="1.1" opacity="0.444"/>
<circle cx="844.8000000000001" cy="400" r="130" fill="none" stroke="#378dbd" stroke-width="1.1" opacity="0.430"/>
<circle cx="844.8000000000001" cy="400" r="156" fill="none" stroke="#378dbd" stroke-width="1.1" opacity="0.416"/>
<circle cx="844.8000000000001" cy="400" r="182" fill="none" stroke="#378dbd" stroke-width="1.1" opacity="0.402"/>
<circle cx="844.8000000000001" cy="400" r="208" fill="none" stroke="#378dbd" stroke-width="1.1" opacity="0.388"/>
<circle cx="844.8000000000001" cy="400" r="234" fill="none" stroke="#378dbd" stroke-width="1.1" opacity="0.374"/>
<circle cx="844.8000000000001" cy="400" r="260" fill="none" stroke="#378dbd" stroke-width="1.1" opacity="0.360"/>
<circle cx="844.8000000000001" cy="400" r="286" fill="none" stroke="#378dbd" stroke-width="1.1" opacity="0.346"/>
<circle cx="844.8000000000001" cy="400" r="312" fill="none" stroke="#378dbd" stroke-width="1.1" opacity="0.332"/>
<circle cx="844.8000000000001" cy="400" r="338" fill="none" stroke="#378dbd" stroke-width="1.1" opacity="0.318"/>
<circle cx="844.8000000000001" cy="400" r="364" fill="none" stroke="#378dbd" stroke-width="1.1" opacity="0.304"/>
<circle cx="844.8000000000001" cy="400" r="390" fill="none" stroke="#378dbd" stroke-width="1.1" opacity="0.290"/>
<circle cx="844.8000000000001" cy="400" r="416" fill="none" stroke="#378dbd" stroke-width="1.1" opacity="0.276"/>
<circle cx="844.8000000000001" cy="400" r="442" fill="none" stroke="#378dbd" stroke-width="1.1" opacity="0.262"/>
<circle cx="844.8000000000001" cy="400" r="468" fill="none" stroke="#378dbd" stroke-width="1.1" opacity="0.248"/>
<circle cx="844.8000000000001" cy="400" r="494" fill="none" stroke="#378dbd" stroke-width="1.1" opacity="0.234"/>
<circle cx="844.8000000000001" cy="400" r="520" fill="none" stroke="#378dbd" stroke-width="1.1" opacity="0.220"/>
<circle cx="844.8000000000001" cy="400" r="546" fill="none" stroke="#378dbd" stroke-width="1.1" opacity="0.206"/>
<circle cx="844.8000000000001" cy="400" r="572" fill="none" stroke="#378dbd" stroke-width="1.1" opacity="0.192"/>
<circle cx="844.8000000000001" cy="400" r="598" fill="none" stroke="#378dbd" stroke-width="1.1" opacity="0.178"/>
<circle cx="844.8000000000001" cy="400" r="624" fill="none" stroke="#378dbd" stroke-width="1.1" opacity="0.164"/>
<circle cx="844.8000000000001" cy="400" r="650" fill="none" stroke="#378dbd" stroke-width="1.1" opacity="0.150"/>
<circle cx="844.8000000000001" cy="400" r="676" fill="none" stroke="#378dbd" stroke-width="1.1" opacity="0.136"/>
<circle cx="844.8000000000001" cy="400" r="702" fill="none" stroke="#378dbd" stroke-width="1.1" opacity="0.122"/>
<circle cx="844.8000000000001" cy="400" r="728" fill="none" stroke="#378dbd" stroke-width="1.1" opacity="0.108"/>
<circle cx="844.8000000000001" cy="400" r="754" fill="none" stroke="#378dbd" stroke-width="1.1" opacity="0.094"/>
<circle cx="844.8000000000001" cy="400" r="780" fill="none" stroke="#378dbd" stroke-width="1.1" opacity="0.080"/>
<circle cx="844.8000000000001" cy="400" r="806" fill="none" stroke="#378dbd" stroke-width="1.1" opacity="0.066"/>
<circle cx="844.8000000000001" cy="400" r="832" fill="none" stroke="#378dbd" stroke-width="1.1" opacity="0.052"/>
<circle cx="844.8000000000001" cy="400" r="858" fill="none" stroke="#378dbd" stroke-width="1.1" opacity="0.040"/>
<circle cx="844.8000000000001" cy="400" r="884" fill="none" stroke="#378dbd" stroke-width="1.1" opacity="0.040"/>
<circle cx="844.8000000000001" cy="400" r="4" fill="#ef4056"/>
</svg>
