<svg xmlns="http://www.w3.org/2000/svg" viewBox="0 0 1280 800" width="1280" height="800">
<rect width="1280" height="800" fill="#0a0f1e"/>
<circle cx="640" cy="430" r="250" fill="none" stroke="#1d2742" stroke-width="1" stroke-dasharray="3 9"/>
<line x1="647.5" y1="175.66987298107782" x2="864.0063509461097" y2="550.6698729810778" stroke="#81d3eb" stroke-width="1.6" opacity="0.9"/>
<line x1="632.5" y1="184.33012701892218" x2="849.0063509461097" y2="559.3301270189222" stroke="#378dbd" stroke-width="1.6" opacity="0.9"/>
<line x1="856.5063509461097" y1="563.6602540378444" x2="423.4936490538904" y2="563.6602540378445" stroke="#81d3eb" stroke-width="1.6" opacity="0.9"/>
<line x1="856.5063509461097" y1="546.3397459621556" x2="423.4936490538904" y2="546.3397459621557" stroke="#378dbd" stroke-width="1.6" opacity="0.9"/>
<line x1="415.9936490538904" y1="550.6698729810779" x2="632.5" y2="175.66987298107782" stroke="#81d3eb" stroke-width="1.6" opacity="0.9"/>
<line x1="430.9936490538904" y1="559.3301270189223" x2="647.5" y2="184.33012701892218" stroke="#378dbd" stroke-width="1.6" opacity="0.9"/>
<circle cx="640" cy="180" r="26" fill="#0a0f1e" stroke="#1d2742" stroke-width="1.5"/>
<circle cx="640" cy="180" r="12" fill="none" stroke="#81d3eb" stroke-width="2"/>
<circle cx="640" cy="180" r="3.5" fill="#ef4056"/>
<circle cx="856.5063509461097" cy="555" r="26" fill="#0a0f1e" stroke="#1d2742" stroke-width="1.5"/>
<circle cx="856.5063509461097" cy="555" r="12" fill="none" stroke="#81d3eb" stroke-width="2"/>
<circle cx="856.5063509461097" cy="555" r="3.5" fill="#ef4056"/>
<circle cx="423.4936490538904" cy="555.0000000000001" r="26" fill="#0a0f1e" stroke="#1d2742" stroke-width="1.5"/>
<circle cx="423.4936490538904" cy="555.0000000000001" r="12" fill="none" stroke="#81d3eb" stroke-width="2"/>
<circle cx="423.4936490538904" cy="555.0000000000001" r="3.5" fill="#ef4056"/>
<circle cx="745.4" cy="415.9" r="1.49" fill="#f2f1ec" opacity="0.38"/>
<circle cx="963.9" cy="551.5" r="0.98" fill="#f2f1ec" opacity="0.16"/>
<circle cx="62.8" cy="181.1" r="0.67" fill="#f2f1ec" opacity="0.50"/>
<circle cx="909.3" cy="537.1" r="0.77" fill="#f2f1ec" opacity="0.20"/>
<circle cx="133.9" cy="719.6" r="1.40" fill="#f2f1ec" opacity="0.44"/>
<circle cx="577.6" cy="224.9" r="1.39" fill="#f2f1ec" opacity="0.12"/>
<circle cx="980.6" cy="770.5" r="1.35" fill="#f2f1ec" opacity="0.15"/>
<circle cx="431.4" cy="519.6" r="0.37" fill="#f2f1ec" opacity="0.21"/>
<circle cx="646.3" cy="614.7" r="0.65" fill="#f2f1ec" opacity="0.31"/>
<circle cx="3.5" cy="461.8" r="1.02" fill="#f2f1ec" opacity="0.36"/>
<circle cx="898.6" cy="682.9" r="1.36" fill="#f2f1ec" opacity="0.19"/>
<circle cx="1070.0" cy="342.3" r="1.49" fill="#f2f1ec" opacity="0.16"/>
<circle cx="1083.5" cy="231.9" r="0.32" fill="#f2f1ec" opacity="0.30"/>
<circle cx="32.9" cy="123.3" r="1.52" fill="#f2f1ec" opacity="0.20"/>
<circle cx="416.6" cy="491.4" r="1.25" fill="#f2f1ec" opacity="0.33"/>
<circle cx="1032.8" cy="486.3" r="1.11" fill="#f2f1ec" opacity="0.14"/>
<circle cx="344.9" cy="63.9" r="1.47" fill="#f2f1ec" opacity="0.49"/>
<circle cx="306.1" cy="651.3" r="0.59" fill="#f2f1ec" opacity="0.27"/>
<circle cx="91.9" cy="20.8" r="0.49" fill="#f2f1ec" opacity="0.24"/>
<circle cx="694.8" cy="795.4" r="0.85" fill="#f2f1ec" opacity="0.25"/>
<circle cx="454.3" cy="503.7" r="0.84" fill="#f2f1ec" opacity="0.11"/>
<circle cx="969.1" cy="345.7" r="1.38" fill="#f2f1ec" opacity="0.17"/>
<circle cx="873.1" cy="423.9" r="1.29" fill="#f2f1ec" opacity="0.35"/>
<circle cx="622.4" cy="334.0" r="0.60" fill="#f2f1ec" opacity="0.10"/>
<circle cx="421.5" cy="432.2" r="0.68" fill="#f2f1ec" opacity="0.50"/>
<circle cx="1054.6" cy="476.6" r="0.43" fill="#f2f1ec" opacity="0.48"/>
<circle cx="748.7" cy="476.3" r="0.46" fill="#f2f1ec" opacity="0.14"/>
<circle cx="1064.1" cy="535.6" r="0.90" fill="#f2f1ec" opacity="0.41"/>
<circle cx="823.7" cy="693.6" r="0.74" fill="#f2f1ec" opacity="0.15"/>
<circle cx="585.1" cy="54.1" r="1.48" fill="#f2f1ec" opacity="0.24"/>
<circle cx="906.3" cy="406.4" r="0.39" fill="#f2f1ec" opacity="0.14"/>
<circle cx="689.2" cy="358.5" r="1.54" fill="#f2f1ec" opacity="0.11"/>
<circle cx="1214.3" cy="748.4" r="1.09" fill="#f2f1ec" opacity="0.35"/>
<circle cx="670.2" cy="368.5" r="0.97" fill="#f2f1ec" opacity="0.19"/>
<circle cx="280.9" cy="74.8" r="0.73" fill="#f2f1ec" opacity="0.50"/>
<circle cx="812.0" cy="185.0" r="1.21" fill="#f2f1ec" opacity="0.22"/>
<circle cx="905.4" cy="708.1" r="0.63" fill="#f2f1ec" opacity="0.13"/>
<circle cx="699.1" cy="614.0" r="1.13" fill="#f2f1ec" opacity="0.20"/>
<circle cx="977.7" cy="751.5" r="0.52" fill="#f2f1ec" opacity="0.11"/>
<circle cx="311.3" cy="144.4" r="0.89" fill="#f2f1ec" opacity="0.20"/>
<circle cx="985.1" cy="209.5" r="0.37" fill="#f2f1ec" opacity="0.18"/>
<circle cx="437.9" cy="35.5" r="1.36" fill="#f2f1ec" opacity="0.10"/>
<circle cx="1118.6" cy="57.4" r="1.21" fill="#f2f1ec" opacity="0.18"/>
<circle cx="996.8" cy="254.5" r="0.79" fill="#f2f1ec" opacity="0.32"/>
<circle cx="546.2" cy="554.1" r="1.24" fill="#f2f1ec" opacity="0.37"/>
<circle cx="525.4" cy="249.7" r="1.09" fill="#f2f1ec" opacity="0.42"/>
<circle cx="1170.9" cy="313.8" r="0.37" fill="#f2f1ec" opacity="0.13"/>
<circle cx="1139.8" cy="445.7" r="1.04" fill="#f2f1ec" opacity="0.46"/>
<circle cx="1054.2" cy="667.7" r="1.43" fill="#f2f1ec" opacity="0.12"/>
<circle cx="504.5" cy="320.2" r="0.35" fill="#f2f1ec" opacity="0.29"/>
<circle cx="868.2" cy="491.1" r="1.40" fill="#f2f1ec" opacity="0.37"/>
<circle cx="850.4" cy="19.2" r="1.37" fill="#f2f1ec" opacity="0.33"/>
<circle cx="393.3" cy="130.2" r="0.52" fill="#f2f1ec" opacity="0.11"/>
<circle cx="237.7" cy="564.4" r="0.40" fill="#f2f1ec" opacity="0.17"/>
<circle cx="879.0" cy="104.2" r="0.53" fill="#f2f1ec" opacity="0.10"/>
<circle cx="186.5" cy="675.1" r="1.27" fill="#f2f1ec" opacity="0.24"/>
<circle cx="487.0" cy="549.7" r="0.80" fill="#f2f1ec" opacity="0.35"/>
<circle cx="1056.2" cy="532.6" r="0.83" fill="#f2f1ec" opacity="0.10"/>
<circle cx="57.6" cy="29.5" r="0.76" fill="#f2f1ec" opacity="0.31"/>
<circle cx="228.4" cy="596.9" r="1.20" fill="#f2f1ec" opacity="0.26"/>
<circle cx="120.1" cy="222.6" r="0.85" fill="#f2f1ec" opacity="0.39"/>
<circle cx="208.8" cy="513.0" r="1.41" fill="#f2f1ec" opacity="0.28"/>
<circle cx="1125.2" cy="99.8" r="1.21" fill="#f2f1ec" opacity="0.14"/>
<circle cx="1245.0" cy="418.8" r="1.27" fill="#f2f1ec" opacity="0.22"/>
<circle cx="743.1" cy="563.9" r="1.55" fill="#f2f1ec" opacity="0.13"/>
<circle cx="84.7" cy="425.8" r="0.69" fill="#f2f1ec" opacity="0.24"/>
<circle cx="250.6" cy="497.6" r="0.53" fill="#f2f1ec" opacity="0.20"/>
<circle cx="736.1" cy="339.6" r="0.61" fill="#f2f1ec" opacity="0.29"/>
<circle cx="583.7" cy="85.2" r="1.14" fill="#f2f1ec" opacity="0.39"/>
<circle cx="1052.2" cy="40.2" r="1.42" fill="#f2f1ec" opacity="0.45"/>
<circle cx="939.6" cy="527.5" r="0.81" fill="#f2f1ec" opacity="0.14"/>
<circle cx="1158.2" cy="499.8" r="1.57" fill="#f2f1ec" opacity="0.20"/>
<circle cx="846.3" cy="345.4" r="1.53" fill="#f2f1ec" opacity="0.43"/>
<circle cx="790.1" cy="48.6" r="1.13" fill="#f2f1ec" opacity="0.49"/>
<circle cx="50.6" cy="123.7" r="1.12" fill="#f2f1ec" opacity="0.14"/>
<circle cx="1187.5" cy="212.8" r="1.16" fill="#f2f1ec" opacity="0.31"/>
<circle cx="862.6" cy="449.2" r="0.56" fill="#f2f1ec" opacity="0.18"/>
<circle cx="806.9" cy="467.9" r="1.11" fill="#f2f1ec" opacity="0.40"/>
<circle cx="928.6" cy="729.4" r="1.55" fill="#f2f1ec" opacity="0.16"/>
<circle cx="1195.2" cy="143.9" r="1.58" fill="#f2f1ec" opacity="0.15"/>
<circle cx="1094.7" cy="316.6" r="0.63" fill="#f2f1ec" opacity="0.11"/>
<circle cx="385.2" cy="431.4" r="1.51" fill="#f2f1ec" opacity="0.23"/>
<circle cx="442.6" cy="248.0" r="0.84" fill="#f2f1ec" opacity="0.22"/>
<circle cx="71.9" cy="326.9" r="0.64" fill="#f2f1ec" opacity="0.39"/>
<circle cx="979.5" cy="722.9" r="0.56" fill="#f2f1ec" opacity="0.22"/>
<circle cx="358.3" cy="199.7" r="1.40" fill="#f2f1ec" opacity="0.17"/>
<circle cx="321.3" cy="773.8" r="0.63" fill="#f2f1ec" opacity="0.26"/>
<circle cx="1107.3" cy="504.4" r="0.77" fill="#f2f1ec" opacity="0.34"/>
<circle cx="1218.7" cy="195.3" r="1.17" fill="#f2f1ec" opacity="0.15"/>
<circle cx="982.1" cy="460.5" r="0.32" fill="#f2f1ec" opacity="0.43"/>
</svg>
