<svg xmlns="http://www.w3.org/2000/svg" viewBox="0 0 1280 800" width="1280" height="800">
<rect width="1280" height="800" fill="#0a0f1e"/>
<line x1="640.0" y1="398.0" x2="1018.4" y2="618.0" stroke="#1d2742" stroke-width="1.5"/>
<line x1="766.1" y1="471.3" x2="892.3" y2="544.7" stroke="#ef4056" stroke-width="4" stroke-linecap="round"/>
<circle cx="829.2" cy="508.0" r="4.5" fill="#0a0f1e" stroke="#ef4056" stroke-width="2"/>
<line x1="640.0" y1="398.0" x2="261.6" y2="618.0" stroke="#1d2742" stroke-width="1.5"/>
<line x1="513.9" y1="471.3" x2="387.7" y2="544.7" stroke="#81d3eb" stroke-width="4" stroke-linecap="round"/>
<circle cx="450.8" cy="508.0" r="4.5" fill="#0a0f1e" stroke="#81d3eb" stroke-width="2"/>
<line x1="640.0" y1="398.0" x2="640.0" y2="2.0" stroke="#1d2742" stroke-width="1.5"/>
<line x1="640.0" y1="266.0" x2="640.0" y2="134.0" stroke="#378dbd" stroke-width="4" stroke-linecap="round"/>
<circle cx="640.0" cy="200.0" r="4.5" fill="#0a0f1e" stroke="#378dbd" stroke-width="2"/>
<line x1="1018.4" y1="618.0" x2="640.0" y2="838.0" stroke="#1d2742" stroke-width="1.5"/>
<line x1="892.3" y1="691.3" x2="766.1" y2="764.7" stroke="#ef4056" stroke-width="4" stroke-linecap="round"/>
<circle cx="829.2" cy="728.0" r="4.5" fill="#0a0f1e" stroke="#ef4056" stroke-width="2"/>
<line x1="1018.4" y1="618.0" x2="1018.4" y2="222.0" stroke="#1d2742" stroke-width="1.5"/>
<line x1="1018.4" y1="486.0" x2="1018.4" y2="354.0" stroke="#81d3eb" stroke-width="4" stroke-linecap="round"/>
<circle cx="1018.4" cy="420.0" r="4.5" fill="#0a0f1e" stroke="#81d3eb" stroke-width="2"/>
<line x1="261.6" y1="618.0" x2="640.0" y2="838.0" stroke="#1d2742" stroke-width="1.5"/>
<line x1="387.7" y1="691.3" x2="513.9" y2="764.7" stroke="#378dbd" stroke-width="4" stroke-linecap="round"/>
<circle cx="450.8" cy="728.0" r="4.5" fill="#0a0f1e" stroke="#378dbd" stroke-width="2"/>
<line x1="261.6" y1="618.0" x2="261.6" y2="222.0" stroke="#1d2742" stroke-width="1.5"/>
<line x1="261.6" y1="486.0" x2="261.6" y2="354.0" stroke="#ef4056" stroke-width="4" stroke-linecap="round"/>
<circle cx="261.6" cy="420.0" r="4.5" fill="#0a0f1e" stroke="#ef4056" stroke-width="2"/>
<line x1="640.0" y1="2.0" x2="1018.4" y2="222.0" stroke="#1d2742" stroke-width="1.5"/>
<line x1="766.1" y1="75.3" x2="892.3" y2="148.7" stroke="#81d3eb" stroke-width="4" stroke-linecap="round"/>
<circle cx="829.2" cy="112.0" r="4.5" fill="#0a0f1e" stroke="#81d3eb" stroke-width="2"/>
<line x1="640.0" y1="2.0" x2="261.6" y2="222.0" stroke="#1d2742" stroke-width="1.5"/>
<line x1="513.9" y1="75.3" x2="387.7" y2="148.7" stroke="#378dbd" stroke-width="4" stroke-linecap="round"/>
<circle cx="450.8" cy="112.0" r="4.5" fill="#0a0f1e" stroke="#378dbd" stroke-width="2"/>
<line x1="640.0" y1="838.0" x2="640.0" y2="442.0" stroke="#1d2742" stroke-width="1.5"/>
<line x1="640.0" y1="706.0" x2="640.0" y2="574.0" stroke="#ef4056" stroke-width="4" stroke-linecap="round"/>
<circle cx="640.0" cy="640.0" r="4.5" fill="#0a0f1e" stroke="#ef4056" stroke-width="2"/>
<line x1="1018.4" y1="222.0" x2="640.0" y2="442.0" stroke="#1d2742" stroke-width="1.5"/>
<line x1="892.3" y1="295.3" x2="766.1" y2="368.7" stroke="#81d3eb" stroke-width="4" stroke-linecap="round"/>
<circle cx="829.2" cy="332.0" r="4.5" fill="#0a0f1e" stroke="#81d3eb" stroke-width="2"/>
<line x1="261.6" y1="222.0" x2="640.0" y2="442.0" stroke="#1d2742" stroke-width="1.5"/>
<line x1="387.7" y1="295.3" x2="513.9" y2="368.7" stroke="#378dbd" stroke-width="4" stroke-linecap="round"/>
<circle cx="450.8" cy="332.0" r="4.5" fill="#0a0f1e" stroke="#378dbd" stroke-width="2"/>
<circle cx="1018.4" cy="618.0" r="3" fill="#f2f1ec" opacity="0.7"/>
<circle cx="1018.4" cy="222.0" r="3" fill="#f2f1ec" opacity="0.7"/>
<circle cx="640.0" cy="838.0" r="3" fill="#f2f1ec" opacity="0.7"/>
<circle cx="640.0" cy="442.0" r="3" fill="#f2f1ec" opacity="0.7"/>
<circle cx="640.0" cy="398.0" r="3" fill="#f2f1ec" opacity="0.7"/>
<circle cx="640.0" cy="2.0" r="3" fill="#f2f1ec" opacity="0.7"/>
<circle cx="261.6" cy="618.0" r="3" fill="#f2f1ec" opacity="0.7"/>
<circle cx="261.6" cy="222.0" r="3" fill="#f2f1ec" opacity="0.7"/>
</svg>
